:FULLY-SPECIFIED
:FORCE-ALL-JOINTS-BE-3DOF
:DEGREES
476
root 3.58971 16.265 -7.12725 5.85344 59.4524 -6.65223
lfemur -40.637 1.2299 -21.8498
ltibia 50.0521 0 0
lfoot -20.8537 -2.33667 0
ltoes 16.2563 0 0
rfemur -25.0276 -1.25296 11.4958
rtibia 66.2845 0 0
rfoot 20.9567 -2.42324 0
rtoes -28.8862 0 0
lowerback 1.86401 -0.176515 2.15875
upperback -0.486818 -0.193039 1.18529
thorax -1.53678 -0.104868 0.0199088
lowerneck -8.37073 -6.50009 0.768258
upperneck 4.00021 -8.84501 1.36015
head 2.78578 -4.3331 -0.143694
lclavicle -2.14707e-14 -1.16088e-14 0
lhumerus -48.2899 -27.4831 108.602
lradius 54.5371 0 0
lwrist 3.49231 0 0
lhand -9.46099 -5.76909 0
lfingers 7.12502 0 0
lthumb 16.4806 23.2084 0
rclavicle -2.14707e-14 -1.16088e-14 0
rhumerus -52.4451 4.05752 -86.1633
rradius 63.9954 0 0
rwrist 16.4703 0 0
rhand -26.7544 -26.4167 0
rfingers 7.12502 0 0
rthumb -0.182808 -776.367 0
477
root 3.66922 16.2873 -7.08111 5.99352 60.6883 -6.15127
lfemur -39.7486 -0.0390133 -22.0697
ltibia 49.5429 0 0
lfoot -20.8937 -2.31839 0
ltoes 16.5419 0 0
rfemur -26.8046 -1.14617 11.3401
rtibia 68.4 0 0
rfoot 20.6681 -1.49471 0
rtoes -27.4402 0 0
lowerback 1.98213 -0.203865 1.9051
upperback -0.461628 -0.232918 1.10117
thorax -1.57759 -0.123506 0.0767783
lowerneck -8.38859 -6.66333 0.625593
upperneck 4.09049 -9.05367 1.42274
head 2.82904 -4.43543 -0.113287
lclavicle -1.86878e-14 -1.08503e-14 0
lhumerus -48.41 -27.7599 108.848
lradius 54.7582 0 0
lwrist 3.6733 0 0
lhand -8.34158 -5.22598 0
lfingers 7.12502 0 0
lthumb 17.5588 23.6755 0
rclavicle -1.86878e-14 -1.08503e-14 0
rhumerus -52.2415 4.63129 -86.5976
rradius 64.1441 0 0
rwrist 16.9296 0 0
rhand -26.3954 -26.148 0
rfingers 7.12502 0 0
rthumb 0.163987 -776.1 0
478
root 3.74873 16.3096 -7.03496 6.13359 61.9242 -5.6503
lfemur -38.8602 -1.30793 -22.2896
ltibia 49.0336 0 0
lfoot -20.9337 -2.30011 0
ltoes 16.8274 0 0
rfemur -28.5815 -1.03939 11.1843
rtibia 70.5156 0 0
rfoot 20.3795 -0.566171 0
rtoes -25.9943 0 0
lowerback 2.10025 -0.231215 1.65145
upperback -0.436438 -0.272797 1.01705
thorax -1.61839 -0.142143 0.133648
lowerneck -8.40644 -6.82657 0.482927
upperneck 4.18076 -9.26233 1.48533
head 2.8723 -4.53777 -0.0828805
lclavicle -1.5905e-14 -1.00919e-14 0
lhumerus -48.5301 -28.0367 109.094
lradius 54.9792 0 0
lwrist 3.85429 0 0
lhand -7.22217 -4.68287 0
lfingers 7.12502 0 0
lthumb 18.6369 24.1426 0
rclavicle -1.5905e-14 -1.00919e-14 0
rhumerus -52.0378 5.20506 -87.0319
rradius 64.2928 0 0
rwrist 17.3888 0 0
rhand -26.0363 -25.8793 0
rfingers 7.12502 0 0
rthumb 0.510781 -775.833 0
479
root 3.82824 16.332 -6.98882 6.27367 63.1601 -5.14933
lfemur -37.9719 -2.57684 -22.5096
ltibia 48.5243 0 0
lfoot -20.9736 -2.28184 0
ltoes 17.113 0 0
rfemur -30.3585 -0.932605 11.0286
rtibia 72.6311 0 0
rfoot 20.0908 0.362364 0
rtoes -24.5483 0 0
lowerback 2.21836 -0.258564 1.3978
upperback -0.411247 -0.312677 0.932928
thorax -1.6592 -0.160781 0.190517
lowerneck -8.4243 -6.98981 0.340262
upperneck 4.27104 -9.471 1.54792
head 2.91556 -4.64011 -0.0524735
lclavicle -1.31222e-14 -9.3334e-15 0
lhumerus -48.6501 -28.3135 109.34
lradius 55.2003 0 0
lwrist 4.03528 0 0
lhand -6.10277 -4.13976 0
lfingers 7.12502 0 0
lthumb 19.7151 24.6097 0
rclavicle -1.31222e-14 -9.3334e-15 0
rhumerus -51.8342 5.77884 -87.4661
rradius 64.4415 0 0
rwrist 17.8481 0 0
rhand -25.6772 -25.6106 0
rfingers 7.12502 0 0
rthumb 0.857576 -775.566 0
480
root 3.90775 16.3543 -6.94267 6.41374 64.396 -4.64837
lfemur -37.0835 -3.84576 -22.7295
ltibia 48.015 0 0
lfoot -21.0136 -2.26356 0
ltoes 17.3986 0 0
rfemur -32.1355 -0.825821 10.8728
rtibia 74.7466 0 0
rfoot 19.8022 1.2909 0
rtoes -23.1023 0 0
lowerback 2.33648 -0.285914 1.14415
upperback -0.386057 -0.352556 0.848806
thorax -1.70001 -0.179419 0.247387
lowerneck -8.44215 -7.15305 0.197596
upperneck 4.36132 -9.67966 1.61051
head 2.95882 -4.74244 -0.0220666
lclavicle -1.03393e-14 -8.57494e-15 0
lhumerus -48.7702 -28.5903 109.586
lradius 55.4214 0 0
lwrist 4.21627 0 0
lhand -4.98336 -3.59665 0
lfingers 7.12502 0 0
lthumb 20.7933 25.0768 0
rclavicle -1.03393e-14 -8.57494e-15 0
rhumerus -51.6305 6.35261 -87.9004
rradius 64.5902 0 0
rwrist 18.3074 0 0
rhand -25.3181 -25.3419 0
rfingers 7.12502 0 0
rthumb 1.20437 -775.299 0
481
root 3.98726 16.3767 -6.89653 6.55382 65.632 -4.1474
lfemur -36.1951 -5.11467 -22.9494
ltibia 47.5057 0 0
lfoot -21.0535 -2.24528 0
ltoes 17.6842 0 0
rfemur -33.9124 -0.719037 10.7171
rtibia 76.8622 0 0
rfoot 19.5136 2.21943 0
rtoes -21.6563 0 0
lowerback 2.4546 -0.313264 0.890496
upperback -0.360867 -0.392435 0.764684
thorax -1.74081 -0.198057 0.304256
lowerneck -8.46001 -7.31629 0.0549306
upperneck 4.45159 -9.88832 1.6731
head 3.00208 -4.84478 0.0083404
lclavicle -7.55649e-15 -7.81649e-15 0
lhumerus -48.8903 -28.867 109.833
lradius 55.6424 0 0
lwrist 4.39726 0 0
lhand -3.86395 -3.05355 0
lfingers 7.12502 0 0
lthumb 21.8714 25.5439 0
rclavicle -7.55649e-15 -7.81649e-15 0
rhumerus -51.4269 6.92639 -88.3347
rradius 64.7389 0 0
rwrist 18.7667 0 0
rhand -24.959 -25.0731 0
rfingers 7.12502 0 0
rthumb 1.55117 -775.032 0
482
root 4.06677 16.399 -6.85038 6.69389 66.8679 -3.64643
lfemur -35.3067 -6.38359 -23.1693
ltibia 46.9965 0 0
lfoot -21.0935 -2.227 0
ltoes 17.9697 0 0
rfemur -35.6894 -0.612253 10.5613
rtibia 78.9777 0 0
rfoot 19.225 3.14797 0
rtoes -20.2104 0 0
lowerback 2.57272 -0.340614 0.636845
upperback -0.335677 -0.432314 0.680562
thorax -1.78162 -0.216694 0.361126
lowerneck -8.47786 -7.47953 -0.087735
upperneck 4.54187 -10.097 1.7357
head 3.04534 -4.94712 0.0387474
lclavicle -4.77365e-15 -7.05803e-15 0
lhumerus -49.0104 -29.1438 110.079
lradius 55.8635 0 0
lwrist 4.57825 0 0
lhand -2.74454 -2.51044 0
lfingers 7.12502 0 0
lthumb 22.9496 26.011 0
rclavicle -4.77365e-15 -7.05803e-15 0
rhumerus -51.2232 7.50016 -88.769
rradius 64.8876 0 0
rwrist 19.2259 0 0
rhand -24.6 -24.8044 0
rfingers 7.12502 0 0
rthumb 1.89796 -774.765 0
483
root 4.14628 16.4214 -6.80424 6.83397 68.1038 -3.14547
lfemur -34.4184 -7.6525 -23.3892
ltibia 46.4872 0 0
lfoot -21.1334 -2.20872 0
ltoes 18.2553 0 0
rfemur -37.4663 -0.505469 10.4056
rtibia 81.0933 0 0
rfoot 18.9363 4.0765 0
rtoes -18.7644 0 0
lowerback 2.69083 -0.367964 0.383193
upperback -0.310487 -0.472193 0.59644
thorax -1.82242 -0.235332 0.417995
lowerneck -8.49572 -7.64277 -0.2304
upperneck 4.63214 -10.3056 1.79829
head 3.0886 -5.04945 0.0691543
lclavicle -1.99081e-15 -6.29958e-15 0
lhumerus -49.1304 -29.4206 110.325
lradius 56.0845 0 0
lwrist 4.75924 0 0
lhand -1.62513 -1.96733 0
lfingers 7.12502 0 0
lthumb 24.0277 26.4781 0
rclavicle -1.99081e-15 -6.29958e-15 0
rhumerus -51.0196 8.07394 -89.2033
rradius 65.0363 0 0
rwrist 19.6852 0 0
rhand -24.2409 -24.5357 0
rfingers 7.12502 0 0
rthumb 2.24476 -774.498 0
484
root 4.22579 16.4437 -6.75809 6.97404 69.3397 -2.6445
lfemur -33.53 -8.92142 -23.6091
ltibia 45.9779 0 0
lfoot -21.1734 -2.19044 0
ltoes 18.5409 0 0
rfemur -39.2433 -0.398685 10.2498
rtibia 83.2088 0 0
rfoot 18.6477 5.00504 0
rtoes -17.3184 0 0
lowerback 2.80895 -0.395314 0.129542
upperback -0.285297 -0.512072 0.512318
thorax -1.86323 -0.25397 0.474865
lowerneck -8.51357 -7.80601 -0.373066
upperneck 4.72242 -10.5143 1.86088
head 3.13186 -5.15179 0.0995613
lclavicle 7.92033e-16 -5.54112e-15 0
lhumerus -49.2505 -29.6974 110.571
lradius 56.3056 0 0
lwrist 4.94023 0 0
lhand -0.505724 -1.42422 0
lfingers 7.12502 0 0
lthumb 25.1059 26.9452 0
rclavicle 7.92033e-16 -5.54112e-15 0
rhumerus -50.8159 8.64771 -89.6376
rradius 65.185 0 0
rwrist 20.1445 0 0
rhand -23.8818 -24.267 0
rfingers 7.12502 0 0
rthumb 2.59155 -774.231 0
